<svg width="41" height="20" viewBox="0 0 41 20" fill="none" xmlns="http://www.w3.org/2000/svg">
<path fill-rule="evenodd" clip-rule="evenodd" d="M30.75 2.5H5.125C4.44538 2.5 3.7936 2.76339 3.31304 3.23223C2.83248 3.70107 2.5625 4.33696 2.5625 5V15C2.5625 15.663 2.83248 16.2989 3.31304 16.7678C3.7936 17.2366 4.44538 17.5 5.125 17.5H30.75C31.4296 17.5 32.0814 17.2366 32.562 16.7678C33.0425 16.2989 33.3125 15.663 33.3125 15V5C33.3125 4.33696 33.0425 3.70107 32.562 3.23223C32.0814 2.76339 31.4296 2.5 30.75 2.5ZM5.125 0C3.76577 0 2.4622 0.526784 1.50108 1.46447C0.539954 2.40215 0 3.67392 0 5L0 15C0 16.3261 0.539954 17.5979 1.50108 18.5355C2.4622 19.4732 3.76577 20 5.125 20H30.75C32.1092 20 33.4128 19.4732 34.3739 18.5355C35.335 17.5979 35.875 16.3261 35.875 15V5C35.875 3.67392 35.335 2.40215 34.3739 1.46447C33.4128 0.526784 32.1092 0 30.75 0H5.125Z" fill="black"/>
<path d="M5.125 5H30.75V15H5.125V5ZM37.1562 13.75C38.1757 13.75 39.1533 13.3549 39.8742 12.6517C40.595 11.9484 41 10.9946 41 10C41 9.00544 40.595 8.05161 39.8742 7.34835C39.1533 6.64509 38.1757 6.25 37.1562 6.25V13.75Z" fill="black"/>
</svg>
