<svg width="52" height="52" viewBox="0 0 52 52" fill="none" xmlns="http://www.w3.org/2000/svg">
<path d="M43.355 33.3231C40.69 33.3231 38.1117 32.8898 35.7067 32.1098C34.9483 31.8498 34.1033 32.0448 33.5183 32.6298L30.1167 36.8981C23.985 33.9731 18.2433 28.4481 15.1883 22.0998L19.4133 18.5031C19.9983 17.8965 20.1717 17.0515 19.9333 16.2931C19.1317 13.8881 18.72 11.3098 18.72 8.64479C18.72 7.47479 17.745 6.49979 16.575 6.49979L9.07833 6.49979C7.90833 6.49979 6.5 7.01979 6.5 8.64479C6.5 28.7731 23.2483 45.4998 43.355 45.4998C44.8933 45.4998 45.5 44.1348 45.5 42.9431V35.4681C45.5 34.2981 44.525 33.3231 43.355 33.3231Z" fill="#44B132"/>
</svg>
