<svg width="50" height="50" viewBox="0 0 50 50" fill="none" xmlns="http://www.w3.org/2000/svg">
<path d="M14.583 13.5417H8.33301V11.6667C8.33301 10.9375 8.85384 10.4167 9.58301 10.4167H13.333C14.0622 10.4167 14.583 10.9375 14.583 11.6667V13.5417Z" fill="#546E7A"/>
<path d="M41.667 41.6667H8.33366C6.04199 41.6667 4.16699 39.7917 4.16699 37.5V22.9167H45.8337V37.5C45.8337 39.7917 43.9587 41.6667 41.667 41.6667Z" fill="#505050"/>
<path d="M13.2292 22.9167C12.8125 24.2708 12.5 25.625 12.5 27.0833C12.5 33.9583 18.125 39.5833 25 39.5833C31.875 39.5833 37.5 33.9583 37.5 27.0833C37.5 25.625 37.1875 24.2708 36.7708 22.9167H13.2292Z" fill="#F7F7F7"/>
<path d="M8.33366 12.5H41.667C43.9587 12.5 45.8337 14.375 45.8337 16.6667V22.9167H4.16699V16.6667C4.16699 14.375 6.04199 12.5 8.33366 12.5Z" fill="#78909C"/>
<path d="M35.3118 13.6459H14.791L18.3327 8.33337C18.7493 7.70837 19.3743 7.39587 20.1035 7.39587H30.1035C30.8327 7.39587 31.4577 7.70837 31.8743 8.33337L35.3118 13.6459Z" fill="#78909C"/>
<path d="M36.7702 22.9167C35.1035 18.0208 30.416 14.5833 24.9993 14.5833C19.5827 14.5833 14.8952 18.0208 13.2285 22.9167H36.7702Z" fill="#F6F6F6"/>
<path d="M25 36.4583C30.1777 36.4583 34.375 32.261 34.375 27.0833C34.375 21.9057 30.1777 17.7083 25 17.7083C19.8223 17.7083 15.625 21.9057 15.625 27.0833C15.625 32.261 19.8223 36.4583 25 36.4583Z" fill="#506DA6"/>
<path d="M30.2077 23.9584C28.9577 22.5 27.0827 21.6667 25.2077 21.6667C23.3327 21.6667 21.4577 22.5 20.2077 23.9584C19.6868 24.4792 19.791 25.3125 20.3118 25.8334C20.8327 26.3542 21.666 26.25 22.1868 25.7292C23.7493 23.9584 26.666 23.9584 28.2285 25.7292C28.541 26.0417 28.8535 26.1459 29.2702 26.1459C29.5827 26.1459 29.8952 26.0417 30.2077 25.8334C30.6243 25.4167 30.7285 24.4792 30.2077 23.9584Z" fill="#A7A7A7"/>
<path d="M37.5 15.625H42.7083V19.7917H37.5V15.625Z" fill="#DBE2E5"/>
</svg>
