<svg width="33" height="33" viewBox="0 0 33 33" fill="none" xmlns="http://www.w3.org/2000/svg">
<g opacity="0.8">
<path d="M28.8757 2.75H8.25065C7.52131 2.75 6.82183 3.03973 6.30611 3.55546C5.79038 4.07118 5.50065 4.77065 5.50065 5.5V9.625H2.75065C2.75065 9.625 1.83398 9.9 1.83398 11C1.83398 12.1 2.75065 12.375 2.75065 12.375H5.50065V15.125H2.75065C2.75065 15.125 1.83398 15.4 1.83398 16.5C1.83398 17.6 2.75065 17.875 2.75065 17.875H5.50065V20.625H2.75065C2.75065 20.625 1.83398 20.9 1.83398 22C1.83398 23.1 2.75065 23.375 2.75065 23.375H5.50065V27.5C5.50065 28.2293 5.79038 28.9288 6.30611 29.4445C6.82183 29.9603 7.52131 30.25 8.25065 30.25H28.8757C29.2403 30.25 29.5901 30.1051 29.8479 29.8473C30.1058 29.5894 30.2507 29.2397 30.2507 28.875V4.125C30.2507 3.76033 30.1058 3.41059 29.8479 3.15273C29.5901 2.89487 29.2403 2.75 28.8757 2.75Z" fill="#BE1B1B"/>
<path d="M17.5984 15.7286C19.1735 15.7286 20.4503 14.1778 20.4503 12.2643C20.4503 10.3507 20.0312 8.79999 17.5984 8.79999C15.1657 8.79999 14.7461 10.3507 14.7461 12.2643C14.7461 14.1778 16.0229 15.7286 17.5984 15.7286Z" fill="white"/>
<path d="M23.4604 21.3657C23.4031 18.033 22.9286 17.0831 19.3002 16.4818C19.0729 16.6926 18.8047 16.8543 18.5123 16.9571C18.2199 17.0599 17.9095 17.1014 17.6003 17.0792C17.2912 17.1014 16.9807 17.0598 16.6883 16.9571C16.3959 16.8543 16.1277 16.6925 15.9005 16.4818C12.3113 17.0763 11.8082 18.0122 11.7421 21.2574C11.7368 21.5226 11.7344 21.5362 11.7334 21.5056C11.7334 21.5634 11.7334 21.6698 11.7334 21.8558C11.7334 21.8558 12.5974 23.4546 17.6013 23.4546C22.6052 23.4546 23.4667 21.8514 23.4667 21.8514C23.4667 21.7319 23.4667 21.6489 23.4667 21.5925C23.4603 21.5171 23.4581 21.4414 23.4604 21.3657Z" fill="white"/>
</g>
</svg>
