<svg width="88" height="88" viewBox="0 0 88 88" fill="none" xmlns="http://www.w3.org/2000/svg">
<g opacity="0.8" filter="url(#filter0_d)">
<circle cx="41" cy="41" r="40" fill="#EFEFEF"/>
<path d="M59.7496 19.1666H28.4996C27.3945 19.1666 26.3347 19.6056 25.5533 20.387C24.7719 21.1684 24.3329 22.2282 24.3329 23.3333V29.5833H20.1662C20.1662 29.5833 18.7773 30 18.7773 31.6666C18.7773 33.3333 20.1662 33.75 20.1662 33.75H24.3329V37.9166H20.1662C20.1662 37.9166 18.7773 38.3333 18.7773 40C18.7773 41.6666 20.1662 42.0833 20.1662 42.0833H24.3329V46.25H20.1662C20.1662 46.25 18.7773 46.6666 18.7773 48.3333C18.7773 50 20.1662 50.4166 20.1662 50.4166H24.3329V56.6666C24.3329 57.7717 24.7719 58.8315 25.5533 59.6129C26.3347 60.3943 27.3945 60.8333 28.4996 60.8333H59.7496C60.3021 60.8333 60.832 60.6138 61.2227 60.2231C61.6134 59.8324 61.8329 59.3025 61.8329 58.75V21.25C61.8329 20.6974 61.6134 20.1675 61.2227 19.7768C60.832 19.3861 60.3021 19.1666 59.7496 19.1666Z" fill="#C03A3A"/>
<path d="M42.6635 38.8312C45.0499 38.8312 46.9845 36.4816 46.9845 33.5823C46.9845 30.683 46.3495 28.3334 42.6635 28.3334C38.9776 28.3334 38.3418 30.683 38.3418 33.5823C38.3418 36.4816 40.2764 38.8312 42.6635 38.8312Z" fill="white"/>
<path d="M51.5456 47.3724C51.4587 42.3229 50.7398 40.8835 45.2421 39.9725C44.8978 40.2919 44.4915 40.537 44.0484 40.6927C43.6053 40.8484 43.135 40.9113 42.6666 40.8776C42.1982 40.9113 41.7279 40.8483 41.2848 40.6926C40.8418 40.5369 40.4354 40.2918 40.0911 39.9725C34.653 40.8732 33.8907 42.2912 33.7906 47.2083C33.7825 47.6101 33.7788 47.6307 33.7773 47.5843C33.7773 47.6719 33.7773 47.8331 33.7773 48.1149C33.7773 48.1149 35.0864 50.5374 42.6681 50.5374C50.2497 50.5374 51.5551 48.1083 51.5551 48.1083C51.5551 47.9272 51.5551 47.8014 51.5551 47.716C51.5453 47.6018 51.5421 47.487 51.5456 47.3724Z" fill="white"/>
</g>
<defs>
<filter id="filter0_d" x="0" y="0" width="88" height="88" filterUnits="userSpaceOnUse" color-interpolation-filters="sRGB">
<feFlood flood-opacity="0" result="BackgroundImageFix"/>
<feColorMatrix in="SourceAlpha" type="matrix" values="0 0 0 0 0 0 0 0 0 0 0 0 0 0 0 0 0 0 127 0"/>
<feOffset dx="3" dy="3"/>
<feGaussianBlur stdDeviation="2"/>
<feColorMatrix type="matrix" values="0 0 0 0 0 0 0 0 0 0 0 0 0 0 0 0 0 0 0.2 0"/>
<feBlend mode="normal" in2="BackgroundImageFix" result="effect1_dropShadow"/>
<feBlend mode="normal" in="SourceGraphic" in2="effect1_dropShadow" result="shape"/>
</filter>
</defs>
</svg>
