<svg width="47" height="47" viewBox="0 0 47 47" fill="none" xmlns="http://www.w3.org/2000/svg">
<path d="M36.3825 1.66446L23.0195 15.0282C18.5654 10.5755 14.1098 6.11855 9.65503 1.66446C4.50159 -3.48898 -3.4866 4.50208 1.66253 9.65696C6.11806 14.1082 10.575 18.5659 15.0255 23.02C10.573 27.4761 6.11866 31.9304 1.66253 36.383C-3.4866 41.535 4.50231 49.5239 9.65503 44.3755C14.1091 39.9199 18.5647 35.4637 23.0187 31.011L36.3817 44.3755C41.5352 49.5275 49.5255 41.5357 44.3742 36.383C39.9187 31.9274 35.4646 27.4733 31.0077 23.0185C35.4639 18.563 39.918 14.1075 44.3742 9.65264C49.5262 4.50208 41.5359 -3.48898 36.3817 1.66733" fill="white"/>
</svg>
