<svg width="52" height="52" viewBox="0 0 52 52" fill="none" xmlns="http://www.w3.org/2000/svg">
<path d="M43.355 33.3232C40.69 33.3232 38.1117 32.8898 35.7067 32.1098C34.9483 31.8498 34.1033 32.0448 33.5183 32.6298L30.1167 36.8982C23.985 33.9732 18.2433 28.4482 15.1883 22.0998L19.4133 18.5032C19.9983 17.8965 20.1717 17.0515 19.9333 16.2932C19.1317 13.8882 18.72 11.3098 18.72 8.64482C18.72 7.47482 17.745 6.49982 16.575 6.49982L9.07833 6.49982C7.90833 6.49982 6.5 7.01982 6.5 8.64482C6.5 28.7732 23.2483 45.4998 43.355 45.4998C44.8933 45.4998 45.5 44.1348 45.5 42.9432V35.4682C45.5 34.2982 44.525 33.3232 43.355 33.3232Z" fill="#757575"/>
</svg>
