<svg width="25" height="25" viewBox="0 0 25 25" fill="none" xmlns="http://www.w3.org/2000/svg">
<path d="M24.75 20.9803V24.7031H0V20.9803C0 19.9954 0.603281 19.108 1.52058 18.7528L6.7392 16.7006L10.8127 21.1767L12.0909 18.5728V18.5676L12.375 17.9845L12.6643 18.5677L13.943 21.1767L18.0107 16.7006L23.2345 18.7528C24.1467 19.1137 24.75 19.9954 24.75 20.9803Z" fill="#F2F2F2"/>
<path d="M16.0257 15.9271H16.0309V13.8079C15.7602 14.2184 15.4457 14.635 15.0801 15.0516L14.5748 15.6085C14.1107 16.1133 13.4508 16.4077 12.765 16.4077H11.9915C11.3057 16.4077 10.6452 16.1138 10.1817 15.6085L9.67639 15.0516C9.30669 14.6314 8.98856 14.2091 8.7168 13.7945V15.9236L8.72506 15.9277L11.9065 17.722L12.3757 17.985L12.8449 17.722L16.0257 15.9271Z" fill="white"/>
<g opacity="0.1">
<g opacity="0.1">
<path opacity="0.1" d="M11.0707 16.219C11.0676 16.218 11.0645 16.2169 11.0614 16.2159C11.0562 16.2138 11.0505 16.2123 11.0454 16.2107C11.0402 16.2082 11.0345 16.2076 11.0273 16.2051L12.9718 17.6493L16.0253 15.9271H16.0284L16.0305 13.8187C16.0253 13.8265 15.3055 14.7695 15.0797 15.0506L14.5744 15.608C14.1103 16.1128 13.4503 16.4072 12.7645 16.4072H11.9911C11.8349 16.4072 11.6817 16.3902 11.5317 16.3582C11.3728 16.3278 11.2197 16.2803 11.0707 16.219Z" fill="#40596B"/>
</g>
</g>
<path d="M8.75679 9.48955C8.83723 10.4151 8.3881 11.2107 7.75388 11.2654C7.11865 11.3211 6.53857 10.6151 6.45659 9.68963C6.37615 8.76407 6.82527 7.96951 7.46051 7.91382C8.09526 7.85813 8.67635 8.56351 8.75679 9.48955Z" fill="white"/>
<path d="M18.2991 9.69084C18.2186 10.6164 17.6375 11.3218 17.0028 11.2661C16.3676 11.2104 15.9179 10.4158 15.9999 9.49028C16.0803 8.56472 16.6614 7.85886 17.2962 7.91455C17.9314 7.96917 18.3805 8.7648 18.2991 9.69084Z" fill="white"/>
<path d="M17.6364 9.49263C17.5389 10.529 17.048 12.8128 15.0794 15.0506L14.5741 15.6074C14.11 16.1127 13.45 16.4072 12.7642 16.4072H11.9908C11.305 16.4072 10.6445 16.1133 10.181 15.6074L9.67567 15.0506C7.70597 12.8128 7.22131 10.5285 7.11767 9.49263C6.97845 8.06434 7.03516 6.24937 7.11767 5.78013C7.58691 3.03187 9.93864 1.32513 12.3776 1.32513C14.816 1.32513 17.1672 3.03187 17.6364 5.78013C17.7189 6.24937 17.7756 8.06487 17.6364 9.49263Z" fill="#FFD15C"/>
<path d="M8.35844 2.62814C8.35844 2.62814 8.39455 -0.843581 13.442 0.265528C13.442 0.265528 15.9464 1.05236 17.5577 3.37992C17.5577 3.37992 19.0695 5.57547 18.2476 7.42244C17.9805 8.02209 17.6938 8.70842 17.7268 9.25959C17.7268 9.25959 17.4469 8.08962 17.2798 7.11461C17.14 6.29786 16.7884 5.53269 16.2486 4.90466L16.2326 4.88556C15.3586 3.87337 13.9906 3.40003 12.6969 3.73367C12.0797 3.893 11.3775 4.20392 10.605 4.75514C10.605 4.75514 8.5023 3.34386 7.4628 5.81422C7.4628 5.81422 6.99975 7.61995 7.06525 9.04617C7.06525 9.04559 4.17105 2.986 8.35844 2.62814Z" fill="#40596B"/>
<path d="M19.2686 18.1443C19.2583 18.0567 19.2382 17.2528 19.0732 16.928C18.7942 16.3809 18.2946 16.0153 17.6913 15.9225L16.0309 15.5873V15.9277H16.0258L15.7881 16.0617L17.6088 16.433C18.0471 16.5 18.4137 16.763 18.6091 17.1594C18.738 17.4121 18.7906 17.6859 18.7488 17.954L18.738 18.0881C16.5569 19.9804 15.9381 21.6871 15.9124 21.7644C15.7484 22.2543 15.7582 22.641 15.9387 22.9194C16.1403 23.234 16.4692 23.27 16.5105 23.2752L16.5621 22.7596C16.5569 22.7596 16.4331 22.7384 16.3666 22.6307C16.2841 22.4961 16.2939 22.2491 16.4027 21.934C16.4079 21.9232 16.7121 21.0838 17.6402 19.9484C17.898 19.8194 18.1863 19.7942 18.4652 19.8762C18.7334 19.9587 18.9597 20.1397 19.0995 20.381C19.2021 21.8717 18.9757 22.7483 18.9705 22.7534C18.8721 23.0731 18.738 23.2845 18.589 23.3412C18.4704 23.3933 18.3616 23.336 18.3616 23.3309L18.2327 23.5573L18.0986 23.7806C18.1198 23.796 18.2791 23.8837 18.4905 23.8837C18.5782 23.8837 18.672 23.8682 18.7695 23.827C19.0789 23.7089 19.3166 23.399 19.4702 22.904C19.4914 22.8267 19.9704 21.0267 19.2686 18.1443ZM18.5838 19.4798C18.4286 19.4334 18.2636 19.4133 18.1084 19.4185C18.3311 19.1756 18.5776 18.9286 18.8566 18.6765C18.9339 19.0369 18.9906 19.3824 19.0319 19.7077C18.8978 19.6087 18.7478 19.5319 18.5838 19.4798Z" fill="#ACB3BA"/>
<path d="M16.9636 23.1082C16.9224 23.3155 16.7207 23.4506 16.5135 23.4099C16.3072 23.3691 16.4542 22.6179 16.6614 22.6586C16.8688 22.6994 17.0044 22.901 16.9636 23.1082Z" fill="white"/>
<path d="M17.7994 23.3661C17.7118 23.5584 17.7953 23.7853 17.9876 23.8735C18.18 23.9616 18.4991 23.2661 18.3068 23.1774C18.116 23.0892 17.8881 23.1738 17.7994 23.3661Z" fill="white"/>
<path d="M8.72393 15.9272L8.71566 15.9231V15.5869L7.60089 15.8163C6.41135 16.0613 5.41052 16.8202 4.85263 17.8979C4.29575 18.9766 4.25553 20.2327 4.74382 21.3443L5.21614 21.137C4.79129 20.1687 4.82425 19.0751 5.31104 18.1351C5.79622 17.1967 6.66866 16.5351 7.70405 16.3222L8.96374 16.0628L8.72393 15.9272Z" fill="#ACB3BA"/>
<path d="M18.0108 16.7006L14.206 21.6918L12.375 17.9845L12.8442 17.7215L16.0256 15.9272H16.0308L16.0359 15.922L18.0108 16.7006Z" fill="#CDD6E0"/>
<path d="M6.73926 16.7006L10.5503 21.6918L12.3751 17.9845L11.9058 17.7215L8.72443 15.9272L8.71413 15.922L6.73926 16.7006Z" fill="#CDD6E0"/>
<path d="M10.5508 24.7031L11.5918 22.3312L11.1427 21.6712L10.8137 21.1762L12.0915 18.5677L12.3756 17.9845L12.6648 18.5677V18.5728L13.9436 21.1762L13.6084 21.6665L13.1593 22.3312L14.2065 24.7031H10.5508Z" fill="#334A5E"/>
<path d="M13.9433 21.1762L13.6081 21.6665L12.3805 19.1549L11.1424 21.6712L10.8135 21.1762L12.0912 18.5677L12.3753 17.9845L12.6646 18.5677V18.5728L13.9433 21.1762Z" fill="#2A4356"/>
<path d="M6.53109 22.1518C6.53109 22.7963 6.00724 23.3197 5.36267 23.3197C4.71811 23.3197 4.19531 22.7963 4.19531 22.1518C4.19531 21.5073 4.71816 20.9844 5.36267 20.9844C6.00719 20.9844 6.53109 21.5072 6.53109 22.1518Z" fill="#FF7058"/>
<path d="M6.14714 22.1518C6.14714 22.5849 5.79653 22.9361 5.36341 22.9361C4.92927 22.9361 4.57812 22.5844 4.57812 22.1518C4.57812 21.7192 4.9298 21.3675 5.36341 21.3675C5.79653 21.3675 6.14714 21.7187 6.14714 22.1518Z" fill="#F2F2F2"/>
<path d="M5.91277 22.1518C5.91277 22.456 5.66682 22.7014 5.36416 22.7014C5.05996 22.7014 4.81348 22.4555 4.81348 22.1518C4.81348 21.8486 5.06044 21.6026 5.36416 21.6026C5.66682 21.6026 5.91277 21.8486 5.91277 22.1518Z" fill="#ACB3BA"/>
</svg>
