<svg width="36" height="35" viewBox="0 0 36 35" fill="none" xmlns="http://www.w3.org/2000/svg">
<path d="M21.9151 28.0032L7.0118 13.0715L2.06905 18.0143C1.37771 18.6957 0.998047 19.6066 0.998047 20.5785C0.998047 21.5503 1.37913 22.4598 2.06338 23.1355L11.861 32.9332C12.541 33.6245 13.452 34.0042 14.4252 34.0042C15.397 34.0042 16.3065 33.6231 16.9823 32.9389L21.9151 28.0032Z" fill="white"/>
<path d="M8.01367 12.07L19.0212 1.06245C20.3713 -0.310301 22.7796 -0.313135 24.141 1.06812L33.9387 10.8658C34.6229 11.5415 35.004 12.451 35.004 13.4229C35.004 14.3933 34.6243 15.3028 33.9358 15.9842L22.9184 27.003L8.01367 12.07Z" fill="#124F87"/>
</svg>
