<svg width="88" height="88" viewBox="0 0 88 88" fill="none" xmlns="http://www.w3.org/2000/svg">
<g opacity="0.7" filter="url(#filter0_d)">
<circle cx="41" cy="41" r="40" fill="#EFEFEF"/>
<path d="M55.5837 28.5H38.917L34.7503 24.3334H24.3337C22.042 24.3334 20.167 26.2084 20.167 28.5V53.5C20.167 55.7917 22.042 57.6667 24.3337 57.6667H56.6253C58.3962 57.6667 59.7503 56.3125 59.7503 54.5417V32.6667C59.7503 30.375 57.8753 28.5 55.5837 28.5Z" fill="#C68608"/>
<path d="M27.9731 38.2054L27.9731 38.2054L27.9734 38.2031C28.278 36.2741 30.0057 34.85 31.9372 34.85H59.958C62.5007 34.85 64.4301 37.1894 63.9226 39.6254L63.9226 39.6254L63.9221 39.6283L61.3179 54.2116L61.3176 54.2136C61.013 56.1426 59.2854 57.5667 57.3538 57.5667H24.4528L27.9731 38.2054Z" fill="#FFD028" stroke="black" stroke-width="0.2"/>
</g>
<defs>
<filter id="filter0_d" x="0" y="0" width="88" height="88" filterUnits="userSpaceOnUse" color-interpolation-filters="sRGB">
<feFlood flood-opacity="0" result="BackgroundImageFix"/>
<feColorMatrix in="SourceAlpha" type="matrix" values="0 0 0 0 0 0 0 0 0 0 0 0 0 0 0 0 0 0 127 0"/>
<feOffset dx="3" dy="3"/>
<feGaussianBlur stdDeviation="2"/>
<feColorMatrix type="matrix" values="0 0 0 0 0 0 0 0 0 0 0 0 0 0 0 0 0 0 0.2 0"/>
<feBlend mode="normal" in2="BackgroundImageFix" result="effect1_dropShadow"/>
<feBlend mode="normal" in="SourceGraphic" in2="effect1_dropShadow" result="shape"/>
</filter>
</defs>
</svg>
