<svg width="50" height="50" viewBox="0 0 50 50" fill="none" xmlns="http://www.w3.org/2000/svg">
<path d="M39.5837 12.5H22.917L18.7503 8.33337H8.33366C6.04199 8.33337 4.16699 10.2084 4.16699 12.5V37.5C4.16699 39.7917 6.04199 41.6667 8.33366 41.6667H40.6253C42.3962 41.6667 43.7503 40.3125 43.7503 38.5417V16.6667C43.7503 14.375 41.8753 12.5 39.5837 12.5Z" fill="#C68608"/>
<path d="M11.9731 22.2054L11.9731 22.2054L11.9734 22.2031C12.278 20.2741 14.0057 18.85 15.9372 18.85H43.958C46.5007 18.85 48.4301 21.1894 47.9226 23.6254L47.9226 23.6254L47.9221 23.6283L45.3179 38.2116L45.3176 38.2136C45.013 40.1426 43.2854 41.5667 41.3538 41.5667H8.45283L11.9731 22.2054Z" fill="#FFD028" stroke="black" stroke-width="0.2"/>
</svg>
