<svg width="50" height="50" viewBox="0 0 50 50" fill="none" xmlns="http://www.w3.org/2000/svg">
<path d="M39.5837 12.5H22.917L18.7503 8.33331H8.33366C6.04199 8.33331 4.16699 10.2083 4.16699 12.5V37.5C4.16699 39.7916 6.04199 41.6666 8.33366 41.6666H40.6253C42.3962 41.6666 43.7503 40.3125 43.7503 38.5416V16.6666C43.7503 14.375 41.8753 12.5 39.5837 12.5Z" fill="#C68608"/>
<path d="M43.958 18.75H15.9372C13.958 18.75 12.1872 20.2083 11.8747 22.1875L8.33301 41.6667H41.3538C43.333 41.6667 45.1038 40.2083 45.4163 38.2292L48.0205 23.6458C48.5413 21.1458 46.5622 18.75 43.958 18.75Z" fill="#FFD028"/>
</svg>
