<svg width="40" height="40" viewBox="0 0 40 40" fill="none" xmlns="http://www.w3.org/2000/svg">
<g opacity="0.7">
<path d="M33.3337 20C33.3337 18.1617 31.8387 16.6667 30.0003 16.6667H28.3337V11.6667C28.3337 7.07167 24.5953 5 20.0003 5C15.4053 5 11.667 7.07167 11.667 11.6667V16.6667H10.0003C8.16199 16.6667 6.66699 18.1617 6.66699 20V33.3333C6.66699 35.1717 8.16199 36.6667 10.0003 36.6667H30.0003C31.8387 36.6667 33.3337 35.1717 33.3337 33.3333V20ZM15.0003 11.6667C15.0003 8.91 17.2437 8.33333 20.0003 8.33333C22.757 8.33333 25.0003 8.91 25.0003 11.6667V16.6667H15.0003V11.6667Z" fill="#BE1B1B"/>
</g>
</svg>
