<svg width="124" height="141" viewBox="0 0 124 141" fill="none" xmlns="http://www.w3.org/2000/svg">
<path d="M54.2157 137.711L54.8254 138H55.5H98H99.2426L100.121 137.121C102.332 134.911 107.366 128.814 110.741 121.218C112.899 116.365 114.948 107.931 116.451 99.7281C117.96 91.4886 119 83.0257 119 78C119 74.6141 119.26 68.6233 119.547 62.0024C119.656 59.4924 119.769 56.8918 119.873 54.3082C120.06 49.6471 120.218 45.0656 120.265 41.264C120.312 37.5671 120.261 34.3192 119.959 32.5068C119.153 27.6688 114.79 25.3984 111.132 25.3133C109.24 25.2693 107.215 25.7684 105.558 27.0207C103.836 28.3223 102.699 30.3041 102.509 32.7699L102.5 32.8848V33V68.5H101.016C101.022 67.4442 101.028 66.146 101.035 64.6613C101.055 60.5022 101.079 54.8794 101.095 49.0254C101.126 37.3592 101.127 24.6582 100.998 20.8974C100.801 15.1314 95.8706 12.3373 91.7305 12.2335C89.5993 12.1801 87.3152 12.781 85.5073 14.2741C83.6255 15.8282 82.5 18.1576 82.5 20.9999V64.5H81V10V9.38423L80.7575 8.81826C79.5359 5.96783 76.4318 3.78743 73.07 3.28317C69.4076 2.73383 65.4164 4.12809 62.5334 8.29237L62 9.06287V10V63.5H60.5V16.5V15.943L60.3 15.4231C58.7033 11.2715 55.3706 8.625 51.4375 8.625C47.5601 8.625 44.1424 11.1992 42.2761 15.2428L42 15.8411V16.5V73.8288L35.2027 78.0367C35.1729 77.9988 35.1427 77.9606 35.1121 77.9219C34.0209 76.5402 32.4978 74.6245 30.77 72.4884C27.3299 68.2351 23.0242 63.0402 19.6984 59.4586C18.5402 58.2113 16.8889 57.5332 15.3672 57.2412C13.7861 56.9379 11.9869 56.9772 10.2545 57.5054C8.49914 58.0406 6.76167 59.0978 5.47505 60.8483C4.18362 62.6052 3.5 64.851 3.5 67.5V68.1036L3.73342 68.6602C7.04255 76.5512 12.8497 88.0312 18.4294 98.2502C23.9513 108.363 29.4694 117.649 32.1953 120.921L32.2825 121.025L32.3787 121.121L34.5 119C32.3787 121.121 32.3789 121.122 32.3793 121.122L32.3801 121.123L32.3826 121.125L32.3907 121.133L32.4193 121.162C32.4439 121.186 32.4794 121.221 32.5253 121.267C32.6171 121.357 32.7508 121.488 32.9232 121.656C33.2678 121.99 33.7672 122.469 34.3949 123.057C35.6491 124.231 37.4216 125.844 39.4997 127.603C43.6015 131.073 49.0966 135.286 54.2157 137.711Z" fill="white" stroke="black" stroke-width="6"/>
</svg>
