<svg width="102" height="102" viewBox="0 0 102 102" fill="none" xmlns="http://www.w3.org/2000/svg">
<path d="M35.1328 62.3901C34.3508 62.3901 33.8238 62.4666 33.5518 62.5431V67.5496C33.8748 67.6261 34.2785 67.6474 34.8353 67.6474C36.871 67.6474 38.1248 66.6189 38.1248 64.8806C38.1248 63.3251 37.0453 62.3901 35.1328 62.3901V62.3901ZM49.9525 62.4411C49.1025 62.4411 48.55 62.5176 48.2228 62.5941V73.6866C48.55 73.7631 49.077 73.7631 49.553 73.7631C53.0253 73.7886 55.2863 71.8761 55.2863 67.8301C55.3118 64.3026 53.2505 62.4411 49.9525 62.4411V62.4411Z" fill="black"/>
<path d="M59.5 8.5H25.5C23.2457 8.5 21.0837 9.39553 19.4896 10.9896C17.8955 12.5837 17 14.7457 17 17V85C17 87.2543 17.8955 89.4163 19.4896 91.0104C21.0837 92.6045 23.2457 93.5 25.5 93.5H76.5C78.7543 93.5 80.9163 92.6045 82.5104 91.0104C84.1045 89.4163 85 87.2543 85 85V34L59.5 8.5ZM40.3665 68.8075C39.0533 70.04 37.1152 70.5925 34.8585 70.5925C34.4209 70.5973 33.9835 70.5717 33.5495 70.516V76.5765H29.75V59.8485C31.4647 59.5927 33.1973 59.4762 34.9307 59.5C37.298 59.5 38.981 59.9505 40.1158 60.8558C41.1953 61.7143 41.9262 63.121 41.9262 64.7785C41.922 66.4445 41.3695 67.8513 40.3665 68.8075V68.8075ZM56.5463 74.5663C54.7613 76.0495 52.0455 76.755 48.7263 76.755C46.7373 76.755 45.3305 76.6275 44.3742 76.5V59.8528C46.0896 59.6024 47.8216 59.4845 49.555 59.5C52.7722 59.5 54.8633 60.078 56.4953 61.3105C58.259 62.6195 59.364 64.7063 59.364 67.7025C59.364 70.9453 58.1783 73.185 56.5463 74.5663V74.5663ZM72.25 62.7725H65.739V66.6442H71.825V69.7638H65.739V76.5807H61.8885V59.6275H72.25V62.7725ZM59.5 38.25H55.25V17L76.5 38.25H59.5Z" fill="black"/>
</svg>
