<svg width="34" height="34" viewBox="0 0 34 34" fill="none" xmlns="http://www.w3.org/2000/svg">
<path d="M3.44336 22.1991L22.8347 2.79363C23.0344 2.59246 23.305 2.47913 23.5869 2.47913H23.5884C23.8703 2.47913 24.1409 2.59104 24.3392 2.79079L31.21 9.66163C31.4098 9.86138 31.5217 10.132 31.5217 10.4125C31.5217 10.6944 31.4098 10.965 31.21 11.1647L11.8017 30.5589L3.44336 22.1991Z" fill="black"/>
<path d="M31.9701 8.41925L32.6685 7.72083C33.5256 6.86233 33.9988 5.73042 33.9988 4.53333C33.9988 3.30933 33.5228 2.17033 32.6714 1.3345C30.9685 -0.385336 27.9751 -0.383919 26.2765 1.33166L25.5781 2.03008L31.9701 8.41925Z" fill="black"/>
<path d="M2.86747 23.6271L0.048306 32.6201C-0.0692773 32.997 0.031306 33.4092 0.311806 33.6883C0.512973 33.8909 0.784973 34 1.06264 34C1.16889 34 1.27514 33.9844 1.38139 33.9518L10.373 31.1326L2.86747 23.6271Z" fill="black"/>
<path d="M9.87411 12.4497C10.1461 12.4497 10.4181 12.3462 10.6249 12.138L17.4844 5.27849C17.8514 4.91299 18.3415 4.76849 18.8218 4.8039L20.4991 3.12515C19.0484 2.34882 17.2039 2.55423 15.9814 3.7754L9.12186 10.6349C8.70678 11.05 8.70678 11.7229 9.12186 12.138C9.33011 12.3448 9.60069 12.4497 9.87411 12.4497Z" fill="black"/>
</svg>
