<svg width="322" height="58" viewBox="0 0 322 58" fill="none" xmlns="http://www.w3.org/2000/svg">
<path fill-rule="evenodd" clip-rule="evenodd" d="M0.648438 58H321.352C307.677 24.0014 274.391 0 235.5 0H86.5003C47.6091 0 14.3237 24.0014 0.648438 58Z" fill="#DAD7D2" fill-opacity="0.7"/>
<path d="M181.798 35.2328C180.144 36.2167 177.841 36.294 175.82 35.2328L160.996 26.9667L146.171 35.2328C144.15 36.294 141.843 36.2167 140.201 35.2328C138.547 34.2511 138.653 32.5922 140.201 31.67C141.741 30.7479 158.01 21.7383 158.01 21.7383C158.398 21.5048 158.862 21.3191 159.376 21.1922C159.889 21.0654 160.441 21 160.999 21C161.557 21 162.11 21.0654 162.623 21.1922C163.137 21.3191 163.601 21.5048 163.988 21.7383C163.988 21.7383 180.25 30.7479 181.798 31.67C183.349 32.5922 183.452 34.2511 181.798 35.2328Z" fill="black"/>
</svg>
