<svg width="30" height="36" viewBox="0 0 30 36" fill="none" xmlns="http://www.w3.org/2000/svg">
<path d="M18.1359 18.7408H11.8643C12.8397 21.6913 11.9449 23.0375 11.9449 23.0375L14.1134 23.5292H15.8868L18.0553 23.0375C18.0553 23.0375 17.1605 21.6913 18.1359 18.7408Z" fill="#E2A379"/>
<path d="M15.0002 36C20.6592 36 25.7701 33.6461 29.4057 29.8734C29.18 28.6562 28.9543 27.5437 28.7366 26.8585C28.0514 24.6578 22.1909 22.8843 14.968 22.8843C7.74507 22.8843 1.94902 24.6578 1.26381 26.8585C1.05422 27.5437 0.820442 28.6481 0.594727 29.8734C4.23036 33.6461 9.3412 36 15.0002 36Z" fill="#019897"/>
<path d="M11.026 23.1262C11.026 23.1262 9.47827 26.6731 14.9761 26.6731C20.4738 26.6731 18.9825 23.1262 18.9825 23.1262L15.0002 22.6586L11.026 23.1262Z" fill="#D0EAEF"/>
<path d="M11.9445 23.0375C11.9445 23.0375 10.7515 25.996 14.9756 25.996C19.1997 25.996 18.055 23.0375 18.055 23.0375L14.9756 21.5542L11.9445 23.0375Z" fill="#E2A379"/>
<path d="M22.118 10.1233C22.118 2.67473 18.9338 0.965744 14.9999 0.965744C11.0741 0.965744 7.88184 2.67473 7.88184 10.1233C7.88184 12.6465 8.38163 14.6215 9.13133 16.1451C10.7758 19.4986 13.6215 20.6675 14.9999 20.6675C16.3784 20.6675 19.224 19.4986 20.8685 16.1451C21.6182 14.6215 22.118 12.6465 22.118 10.1233Z" fill="#F4B382"/>
<path d="M8.34108 7.35024C8.00251 8.22892 7.88965 9.31719 7.88965 10.3732C7.88965 10.3732 8.59904 10.2201 8.59904 10.5828L8.82476 12.8077L9.13914 12.6546C9.12302 10.8005 9.53415 7.1729 9.53415 7.1729L8.34108 7.35024Z" fill="#3A1D12"/>
<path d="M21.6667 7.35025C22.0053 8.22893 22.1181 9.3172 22.1181 10.3732C22.1181 10.3732 21.4087 10.2201 21.4087 10.5828L21.183 12.8077L20.8686 12.6546C20.8848 10.8005 20.4736 7.31801 20.4736 7.31801L21.6667 7.35025Z" fill="#3A1D12"/>
<path d="M13.1699 6.9875V9.40587L17.2812 6.86658L13.1699 6.9875Z" fill="#3A1D12"/>
<path d="M11.9209 6.9875V9.40587L16.0321 6.86658L11.9209 6.9875Z" fill="#3A1D12"/>
<path d="M10.6709 6.9875V9.40587L14.7821 6.86658L10.6709 6.9875Z" fill="#3A1D12"/>
<path d="M8.21991 2.31198C8.21991 3.00525 7.89746 8.50303 7.89746 8.50303H22.1256C22.1256 8.50303 21.8031 3.00525 21.8031 2.31198C21.8031 1.96535 18.9414 0.45789 15.0881 0.449829C11.1784 0.449829 8.21991 1.95729 8.21991 2.31198Z" fill="#019897"/>
<path d="M8.73645 15.2422C8.0593 15.3551 7.57563 15.2503 7.19675 13.0093C6.81787 10.7682 7.33379 10.47 8.01093 10.3571L8.73645 15.2422Z" fill="#F4B382"/>
<path d="M21.2715 15.2422C21.9486 15.3551 22.4242 15.2503 22.8112 13.0093C23.1981 10.7682 22.6741 10.47 21.997 10.3571L21.2715 15.2422Z" fill="#F4B382"/>
<path d="M20.095 12.9125C20.0708 12.9125 20.0466 12.9045 20.0305 12.8964C19.9499 12.8561 19.9176 12.7594 19.9499 12.6788L21.159 10.075C21.1994 9.99437 21.2961 9.96212 21.3767 9.99437C21.4573 10.0347 21.4896 10.1314 21.4573 10.212L20.2481 12.8158C20.2159 12.8722 20.1594 12.9125 20.095 12.9125Z" fill="#E4F0F2"/>
<path d="M9.90526 12.9126C9.84077 12.9126 9.78435 12.8803 9.76016 12.8158L8.55097 10.212C8.51066 10.1314 8.55097 10.0347 8.63158 9.99437C8.71219 9.95407 8.80893 9.99437 8.84924 10.075L10.0584 12.6788C10.0987 12.7594 10.0584 12.8561 9.97782 12.8964C9.94557 12.9045 9.92139 12.9126 9.90526 12.9126Z" fill="#E4F0F2"/>
<path d="M20.869 16.1451L20.4015 12.5578L15.0004 11.7275L9.59939 12.5498L9.13184 16.137C10.7763 19.4905 13.622 20.6594 15.0004 20.6594C16.3789 20.6594 19.2245 19.4986 20.869 16.1451Z" fill="#E4F0F2"/>
</svg>
