<svg width="50" height="40" viewBox="0 0 50 40" fill="none" xmlns="http://www.w3.org/2000/svg">
<path d="M41.7296 14.5829C32.3174 5.80411 17.6788 5.80732 8.27036 14.5829C7.91655 14.9129 7.90964 15.4716 8.25177 15.8139L10.0708 17.6337C10.397 17.9605 10.9218 17.9675 11.2608 17.6541C19.0128 10.4927 30.9861 10.4911 38.7397 17.6541C39.0786 17.9675 39.6035 17.96 39.9297 17.6337L41.7487 15.8139C42.0903 15.4716 42.0834 14.9129 41.7296 14.5829ZM25 25.1429C23.122 25.1429 21.6 26.6777 21.6 28.5714C21.6 30.4652 23.122 32 25 32C26.8779 32 28.4 30.4652 28.4 28.5714C28.4 26.6777 26.8779 25.1429 25 25.1429ZM35.7668 20.6648C29.6436 15.2043 20.3494 15.2102 14.2331 20.6648C13.8666 20.9916 13.8549 21.5589 14.2028 21.905L16.0325 23.7259C16.3512 24.043 16.8644 24.0645 17.2039 23.7688C21.6637 19.8811 28.3463 19.8896 32.7955 23.7688C33.135 24.0645 33.6482 24.0436 33.9669 23.7259L35.7966 21.905C36.1451 21.5589 36.1328 20.9911 35.7668 20.6648Z" fill="black"/>
</svg>
